<svg width="167" height="29" viewBox="0 0 167 29" fill="none" xmlns="http://www.w3.org/2000/svg">
<path d="M45.524 20.18C44.564 20.18 43.67 20.024 42.842 19.712C42.026 19.388 41.312 18.938 40.7 18.362C40.1 17.774 39.632 17.084 39.296 16.292C38.96 15.5 38.792 14.636 38.792 13.7C38.792 12.764 38.96 11.9 39.296 11.108C39.632 10.316 40.106 9.632 40.718 9.056C41.33 8.468 42.044 8.018 42.86 7.706C43.676 7.382 44.57 7.22 45.542 7.22C46.574 7.22 47.516 7.4 48.368 7.76C49.22 8.108 49.94 8.63 50.528 9.326L49.016 10.748C48.56 10.256 48.05 9.89 47.486 9.65C46.922 9.398 46.31 9.272 45.65 9.272C44.99 9.272 44.384 9.38 43.832 9.596C43.292 9.812 42.818 10.118 42.41 10.514C42.014 10.91 41.702 11.378 41.474 11.918C41.258 12.458 41.15 13.052 41.15 13.7C41.15 14.348 41.258 14.942 41.474 15.482C41.702 16.022 42.014 16.49 42.41 16.886C42.818 17.282 43.292 17.588 43.832 17.804C44.384 18.02 44.99 18.128 45.65 18.128C46.31 18.128 46.922 18.008 47.486 17.768C48.05 17.516 48.56 17.138 49.016 16.634L50.528 18.074C49.94 18.758 49.22 19.28 48.368 19.64C47.516 20 46.568 20.18 45.524 20.18ZM58.0081 10.28C58.7761 10.28 59.4601 10.43 60.0601 10.73C60.6721 11.03 61.1521 11.492 61.5001 12.116C61.8481 12.728 62.0221 13.52 62.0221 14.492V20H59.7721V14.78C59.7721 13.928 59.5681 13.292 59.1601 12.872C58.7641 12.452 58.2061 12.242 57.4861 12.242C56.9581 12.242 56.4901 12.35 56.0821 12.566C55.6741 12.782 55.3561 13.106 55.1281 13.538C54.9121 13.958 54.8041 14.492 54.8041 15.14V20H52.5541V6.644H54.8041V12.98L54.3181 12.188C54.6541 11.576 55.1401 11.108 55.7761 10.784C56.4241 10.448 57.1681 10.28 58.0081 10.28ZM70.7984 20V18.056L70.6724 17.642V14.24C70.6724 13.58 70.4744 13.07 70.0784 12.71C69.6824 12.338 69.0824 12.152 68.2784 12.152C67.7384 12.152 67.2044 12.236 66.6764 12.404C66.1604 12.572 65.7224 12.806 65.3624 13.106L64.4804 11.468C64.9964 11.072 65.6084 10.778 66.3164 10.586C67.0364 10.382 67.7804 10.28 68.5484 10.28C69.9404 10.28 71.0144 10.616 71.7704 11.288C72.5384 11.948 72.9224 12.974 72.9224 14.366V20H70.7984ZM67.7744 20.126C67.0544 20.126 66.4244 20.006 65.8844 19.766C65.3444 19.514 64.9244 19.172 64.6244 18.74C64.3364 18.296 64.1924 17.798 64.1924 17.246C64.1924 16.706 64.3184 16.22 64.5704 15.788C64.8344 15.356 65.2604 15.014 65.8484 14.762C66.4364 14.51 67.2164 14.384 68.1884 14.384H70.9784V15.878H68.3504C67.5824 15.878 67.0664 16.004 66.8024 16.256C66.5384 16.496 66.4064 16.796 66.4064 17.156C66.4064 17.564 66.5684 17.888 66.8924 18.128C67.2164 18.368 67.6664 18.488 68.2424 18.488C68.7944 18.488 69.2864 18.362 69.7184 18.11C70.1624 17.858 70.4804 17.486 70.6724 16.994L71.0504 18.344C70.8344 18.908 70.4444 19.346 69.8804 19.658C69.3284 19.97 68.6264 20.126 67.7744 20.126ZM79.428 20.126C78.372 20.126 77.556 19.856 76.98 19.316C76.404 18.764 76.116 17.954 76.116 16.886V8.264H78.366V16.832C78.366 17.288 78.48 17.642 78.708 17.894C78.948 18.146 79.278 18.272 79.698 18.272C80.202 18.272 80.622 18.14 80.958 17.876L81.588 19.478C81.324 19.694 81 19.856 80.616 19.964C80.232 20.072 79.836 20.126 79.428 20.126ZM74.532 12.26V10.46H80.94V12.26H74.532ZM86.8284 20.126C85.7724 20.126 84.9564 19.856 84.3804 19.316C83.8044 18.764 83.5164 17.954 83.5164 16.886V8.264H85.7664V16.832C85.7664 17.288 85.8804 17.642 86.1084 17.894C86.3484 18.146 86.6784 18.272 87.0984 18.272C87.6024 18.272 88.0224 18.14 88.3584 17.876L88.9884 19.478C88.7244 19.694 88.4004 19.856 88.0164 19.964C87.6324 20.072 87.2364 20.126 86.8284 20.126ZM81.9324 12.26V10.46H88.3404V12.26H81.9324ZM95.0409 20.126C93.9729 20.126 93.0369 19.916 92.2329 19.496C91.4409 19.064 90.8229 18.476 90.3789 17.732C89.9469 16.988 89.7309 16.142 89.7309 15.194C89.7309 14.234 89.9409 13.388 90.3609 12.656C90.7929 11.912 91.3809 11.33 92.1249 10.91C92.8809 10.49 93.7389 10.28 94.6989 10.28C95.6349 10.28 96.4689 10.484 97.2009 10.892C97.9329 11.3 98.5089 11.876 98.9289 12.62C99.3489 13.364 99.5589 14.24 99.5589 15.248C99.5589 15.344 99.5529 15.452 99.5409 15.572C99.5409 15.692 99.5349 15.806 99.5229 15.914H91.5129V14.42H98.3349L97.4529 14.888C97.4649 14.336 97.3509 13.85 97.1109 13.43C96.8709 13.01 96.5409 12.68 96.1209 12.44C95.7129 12.2 95.2389 12.08 94.6989 12.08C94.1469 12.08 93.6609 12.2 93.2409 12.44C92.8329 12.68 92.5089 13.016 92.2689 13.448C92.0409 13.868 91.9269 14.366 91.9269 14.942V15.302C91.9269 15.878 92.0589 16.388 92.3229 16.832C92.5869 17.276 92.9589 17.618 93.4389 17.858C93.9189 18.098 94.4709 18.218 95.0949 18.218C95.6349 18.218 96.1209 18.134 96.5529 17.966C96.9849 17.798 97.3689 17.534 97.7049 17.174L98.9109 18.56C98.4789 19.064 97.9329 19.454 97.2729 19.73C96.6249 19.994 95.8809 20.126 95.0409 20.126ZM101.72 20V10.388H103.862V13.034L103.61 12.26C103.898 11.612 104.348 11.12 104.96 10.784C105.584 10.448 106.358 10.28 107.282 10.28V12.422C107.186 12.398 107.096 12.386 107.012 12.386C106.928 12.374 106.844 12.368 106.76 12.368C105.908 12.368 105.23 12.62 104.726 13.124C104.222 13.616 103.97 14.354 103.97 15.338V20H101.72ZM114.469 20V7.4H116.809V18.02H123.397V20H114.469ZM129.459 20.126C128.391 20.126 127.455 19.916 126.651 19.496C125.859 19.064 125.241 18.476 124.797 17.732C124.365 16.988 124.149 16.142 124.149 15.194C124.149 14.234 124.359 13.388 124.779 12.656C125.211 11.912 125.799 11.33 126.543 10.91C127.299 10.49 128.157 10.28 129.117 10.28C130.053 10.28 130.887 10.484 131.619 10.892C132.351 11.3 132.927 11.876 133.347 12.62C133.767 13.364 133.977 14.24 133.977 15.248C133.977 15.344 133.971 15.452 133.959 15.572C133.959 15.692 133.953 15.806 133.941 15.914H125.931V14.42H132.753L131.871 14.888C131.883 14.336 131.769 13.85 131.529 13.43C131.289 13.01 130.959 12.68 130.539 12.44C130.131 12.2 129.657 12.08 129.117 12.08C128.565 12.08 128.079 12.2 127.659 12.44C127.251 12.68 126.927 13.016 126.687 13.448C126.459 13.868 126.345 14.366 126.345 14.942V15.302C126.345 15.878 126.477 16.388 126.741 16.832C127.005 17.276 127.377 17.618 127.857 17.858C128.337 18.098 128.889 18.218 129.513 18.218C130.053 18.218 130.539 18.134 130.971 17.966C131.403 17.798 131.787 17.534 132.123 17.174L133.329 18.56C132.897 19.064 132.351 19.454 131.691 19.73C131.043 19.994 130.299 20.126 129.459 20.126ZM141.796 20V18.056L141.67 17.642V14.24C141.67 13.58 141.472 13.07 141.076 12.71C140.68 12.338 140.08 12.152 139.276 12.152C138.736 12.152 138.202 12.236 137.674 12.404C137.158 12.572 136.72 12.806 136.36 13.106L135.478 11.468C135.994 11.072 136.606 10.778 137.314 10.586C138.034 10.382 138.778 10.28 139.546 10.28C140.938 10.28 142.012 10.616 142.768 11.288C143.536 11.948 143.92 12.974 143.92 14.366V20H141.796ZM138.772 20.126C138.052 20.126 137.422 20.006 136.882 19.766C136.342 19.514 135.922 19.172 135.622 18.74C135.334 18.296 135.19 17.798 135.19 17.246C135.19 16.706 135.316 16.22 135.568 15.788C135.832 15.356 136.258 15.014 136.846 14.762C137.434 14.51 138.214 14.384 139.186 14.384H141.976V15.878H139.348C138.58 15.878 138.064 16.004 137.8 16.256C137.536 16.496 137.404 16.796 137.404 17.156C137.404 17.564 137.566 17.888 137.89 18.128C138.214 18.368 138.664 18.488 139.24 18.488C139.792 18.488 140.284 18.362 140.716 18.11C141.16 17.858 141.478 17.486 141.67 16.994L142.048 18.344C141.832 18.908 141.442 19.346 140.878 19.658C140.326 19.97 139.624 20.126 138.772 20.126ZM150.894 20.126C149.97 20.126 149.136 19.922 148.392 19.514C147.66 19.094 147.084 18.518 146.664 17.786C146.244 17.054 146.034 16.19 146.034 15.194C146.034 14.198 146.244 13.334 146.664 12.602C147.084 11.87 147.66 11.3 148.392 10.892C149.136 10.484 149.97 10.28 150.894 10.28C151.698 10.28 152.418 10.46 153.054 10.82C153.69 11.168 154.194 11.702 154.566 12.422C154.938 13.142 155.124 14.066 155.124 15.194C155.124 16.31 154.944 17.234 154.584 17.966C154.224 18.686 153.726 19.226 153.09 19.586C152.454 19.946 151.722 20.126 150.894 20.126ZM151.164 18.2C151.704 18.2 152.184 18.08 152.604 17.84C153.036 17.6 153.378 17.252 153.63 16.796C153.894 16.34 154.026 15.806 154.026 15.194C154.026 14.57 153.894 14.036 153.63 13.592C153.378 13.136 153.036 12.788 152.604 12.548C152.184 12.308 151.704 12.188 151.164 12.188C150.624 12.188 150.138 12.308 149.706 12.548C149.286 12.788 148.944 13.136 148.68 13.592C148.428 14.036 148.302 14.57 148.302 15.194C148.302 15.806 148.428 16.34 148.68 16.796C148.944 17.252 149.286 17.6 149.706 17.84C150.138 18.08 150.624 18.2 151.164 18.2ZM154.08 20V17.732L154.17 15.176L153.99 12.62V6.644H156.222V20H154.08ZM162.153 20.126C161.349 20.126 160.575 20.024 159.831 19.82C159.099 19.604 158.517 19.346 158.085 19.046L158.949 17.336C159.381 17.612 159.897 17.84 160.497 18.02C161.097 18.2 161.697 18.29 162.297 18.29C163.005 18.29 163.515 18.194 163.827 18.002C164.151 17.81 164.313 17.552 164.313 17.228C164.313 16.964 164.205 16.766 163.989 16.634C163.773 16.49 163.491 16.382 163.143 16.31C162.795 16.238 162.405 16.172 161.973 16.112C161.553 16.052 161.127 15.974 160.695 15.878C160.275 15.77 159.891 15.62 159.543 15.428C159.195 15.224 158.913 14.954 158.697 14.618C158.481 14.282 158.373 13.838 158.373 13.286C158.373 12.674 158.547 12.146 158.895 11.702C159.243 11.246 159.729 10.898 160.353 10.658C160.989 10.406 161.739 10.28 162.603 10.28C163.251 10.28 163.905 10.352 164.565 10.496C165.225 10.64 165.771 10.844 166.203 11.108L165.339 12.818C164.883 12.542 164.421 12.356 163.953 12.26C163.497 12.152 163.041 12.098 162.585 12.098C161.901 12.098 161.391 12.2 161.055 12.404C160.731 12.608 160.569 12.866 160.569 13.178C160.569 13.466 160.677 13.682 160.893 13.826C161.109 13.97 161.391 14.084 161.739 14.168C162.087 14.252 162.471 14.324 162.891 14.384C163.323 14.432 163.749 14.51 164.169 14.618C164.589 14.726 164.973 14.876 165.321 15.068C165.681 15.248 165.969 15.506 166.185 15.842C166.401 16.178 166.509 16.616 166.509 17.156C166.509 17.756 166.329 18.278 165.969 18.722C165.621 19.166 165.123 19.514 164.475 19.766C163.827 20.006 163.053 20.126 162.153 20.126Z" fill="black"/>
<path d="M17.5771 2.13932C17.5771 0.534282 19.5291 -0.256772 20.6465 0.895416L30.9427 11.512C31.6208 12.2112 32 13.147 32 14.121V26.4096C32 28.0146 30.0481 28.8057 28.9306 27.6535L18.6345 17.0369C17.9564 16.3377 17.5771 15.402 17.5771 14.428V2.13932Z" fill="#6C63FF"/>
<path d="M8.63892 1.79032C8.63892 0.185283 10.5909 -0.605771 11.7083 0.546417L21.8525 11.0064C22.628 11.806 23.0618 12.8762 23.0618 13.9902V26.0606C23.0618 27.6656 21.1098 28.4567 19.9924 27.3045L9.69623 16.6879C9.01814 15.9887 8.63892 15.053 8.63892 14.079V1.79032Z" fill="#00B2A9"/>
<path d="M0 2.13932C0 0.534282 1.95193 -0.256772 3.06935 0.895416L13.3655 11.512C14.0436 12.2112 14.4228 13.147 14.4228 14.121V26.4096C14.4228 28.0146 12.4709 28.8057 11.3535 27.6535L1.05732 17.0369C0.379225 16.3377 0 15.402 0 14.428V2.13932Z" fill="#0057D9"/>
</svg>
