<svg width="218" height="60" viewBox="0 0 218 60" fill="none" xmlns="http://www.w3.org/2000/svg">
<path d="M75.007 50V43.065H76.242L78.294 47.6915H78.446L80.4885 43.065H81.733V50H80.802V44.0815L80.8685 44.1005L78.902 48.5655H77.762L75.786 44.1005L75.862 44.0815V50H75.007ZM86.1498 50.171C85.7064 50.171 85.3233 50.095 85.0003 49.943C84.6773 49.791 84.4144 49.5915 84.2118 49.3445C84.0091 49.0912 83.8571 48.8093 83.7558 48.499C83.6608 48.1887 83.6133 47.872 83.6133 47.549V47.378C83.6133 47.0487 83.6608 46.7288 83.7558 46.4185C83.8571 46.1082 84.0091 45.8295 84.2118 45.5825C84.4144 45.3292 84.6709 45.1297 84.9813 44.984C85.2979 44.832 85.6684 44.756 86.0928 44.756C86.6438 44.756 87.0966 44.8763 87.4513 45.117C87.8123 45.3513 88.0783 45.6553 88.2493 46.029C88.4266 46.4027 88.5153 46.8017 88.5153 47.226V47.6345H84.0123V46.9505H87.8503L87.6413 47.321C87.6413 46.96 87.5843 46.6497 87.4703 46.39C87.3563 46.124 87.1853 45.9182 86.9573 45.7725C86.7293 45.6268 86.4411 45.554 86.0928 45.554C85.7318 45.554 85.4309 45.6363 85.1903 45.801C84.9559 45.9657 84.7786 46.1905 84.6583 46.4755C84.5443 46.7605 84.4873 47.0898 84.4873 47.4635C84.4873 47.8245 84.5443 48.1507 84.6583 48.442C84.7786 48.727 84.9623 48.955 85.2093 49.126C85.4563 49.2907 85.7698 49.373 86.1498 49.373C86.5488 49.373 86.8718 49.2843 87.1188 49.107C87.3721 48.9297 87.5241 48.7238 87.5748 48.4895H88.4298C88.3601 48.8378 88.2208 49.1387 88.0118 49.392C87.8028 49.6453 87.5399 49.8385 87.2233 49.9715C86.9066 50.1045 86.5488 50.171 86.1498 50.171ZM92.3087 50.171C91.9477 50.171 91.6152 50.1045 91.3112 49.9715C91.0072 49.8385 90.7412 49.6517 90.5132 49.411C90.2915 49.1703 90.1173 48.8917 89.9907 48.575C89.8703 48.2583 89.8102 47.9163 89.8102 47.549V47.378C89.8102 47.017 89.8703 46.6782 89.9907 46.3615C90.111 46.0448 90.2788 45.7662 90.4942 45.5255C90.7158 45.2848 90.9755 45.098 91.2732 44.965C91.5772 44.8257 91.9128 44.756 92.2802 44.756C92.6665 44.756 93.018 44.8383 93.3347 45.003C93.6513 45.1613 93.911 45.4115 94.1137 45.7535C94.3163 46.0955 94.4303 46.5388 94.4557 47.0835L94.0757 46.4755V43.065H94.9877V50H94.2657V47.7485H94.5317C94.5063 48.3248 94.386 48.7935 94.1707 49.1545C93.9553 49.5092 93.683 49.7688 93.3537 49.9335C93.0307 50.0918 92.6823 50.171 92.3087 50.171ZM92.4322 49.373C92.7425 49.373 93.0243 49.3033 93.2777 49.164C93.531 49.0247 93.7337 48.8252 93.8857 48.5655C94.0377 48.2995 94.1137 47.9892 94.1137 47.6345V47.1975C94.1137 46.8492 94.0345 46.5547 93.8762 46.314C93.7242 46.067 93.5183 45.8802 93.2587 45.7535C93.0053 45.6205 92.7267 45.554 92.4227 45.554C92.087 45.554 91.7893 45.6332 91.5297 45.7915C91.2763 45.9498 91.0768 46.1715 90.9312 46.4565C90.7918 46.7415 90.7222 47.0772 90.7222 47.4635C90.7222 47.8498 90.795 48.1887 90.9407 48.48C91.0863 48.765 91.289 48.9867 91.5487 49.145C91.8083 49.297 92.1028 49.373 92.4322 49.373ZM97.367 50V44.927H98.279V50H97.367ZM96.588 45.649V44.927H98.279V45.649H96.588ZM97.6235 44.11C97.4208 44.11 97.2688 44.0562 97.1675 43.9485C97.0725 43.8408 97.025 43.7047 97.025 43.54C97.025 43.3753 97.0725 43.2392 97.1675 43.1315C97.2688 43.0238 97.4208 42.97 97.6235 42.97C97.8261 42.97 97.975 43.0238 98.07 43.1315C98.1713 43.2392 98.222 43.3753 98.222 43.54C98.222 43.7047 98.1713 43.8408 98.07 43.9485C97.975 44.0562 97.8261 44.11 97.6235 44.11ZM102.598 50.171C102.161 50.171 101.781 50.095 101.458 49.943C101.141 49.791 100.878 49.5883 100.669 49.335C100.46 49.0753 100.302 48.7903 100.194 48.48C100.093 48.1697 100.042 47.8593 100.042 47.549V47.378C100.042 47.055 100.093 46.7383 100.194 46.428C100.302 46.1177 100.46 45.839 100.669 45.592C100.885 45.3387 101.151 45.136 101.467 44.984C101.784 44.832 102.154 44.756 102.579 44.756C103.003 44.756 103.383 44.8352 103.719 44.9935C104.061 45.1518 104.333 45.3767 104.536 45.668C104.745 45.953 104.862 46.2918 104.887 46.6845H104.013C103.969 46.3678 103.823 46.105 103.576 45.896C103.329 45.6807 102.997 45.573 102.579 45.573C102.218 45.573 101.917 45.6553 101.676 45.82C101.436 45.9847 101.255 46.2095 101.135 46.4945C101.014 46.7795 100.954 47.1025 100.954 47.4635C100.954 47.8118 101.014 48.1317 101.135 48.423C101.255 48.708 101.436 48.936 101.676 49.107C101.923 49.2717 102.23 49.354 102.598 49.354C102.883 49.354 103.13 49.3033 103.339 49.202C103.548 49.1007 103.716 48.9645 103.842 48.7935C103.969 48.6225 104.045 48.4293 104.07 48.214H104.944C104.925 48.613 104.808 48.9582 104.593 49.2495C104.384 49.5408 104.105 49.7688 103.757 49.9335C103.415 50.0918 103.028 50.171 102.598 50.171ZM109.632 50V48.48H109.48V46.7225C109.48 46.3742 109.388 46.1113 109.205 45.934C109.027 45.7567 108.764 45.668 108.416 45.668C108.22 45.668 108.017 45.6712 107.808 45.6775C107.599 45.6838 107.4 45.6902 107.21 45.6965C107.02 45.7028 106.855 45.7123 106.716 45.725V44.927C106.855 44.9143 107.001 44.9048 107.153 44.8985C107.311 44.8858 107.472 44.8795 107.637 44.8795C107.802 44.8732 107.96 44.87 108.112 44.87C108.631 44.87 109.056 44.9333 109.385 45.06C109.714 45.1803 109.958 45.3798 110.117 45.6585C110.275 45.9372 110.354 46.314 110.354 46.789V50H109.632ZM107.97 50.133C107.59 50.133 107.26 50.0697 106.982 49.943C106.709 49.81 106.497 49.62 106.345 49.373C106.199 49.126 106.127 48.8283 106.127 48.48C106.127 48.119 106.206 47.8182 106.364 47.5775C106.529 47.3368 106.766 47.1563 107.077 47.036C107.387 46.9093 107.761 46.846 108.198 46.846H109.575V47.53H108.16C107.792 47.53 107.51 47.6187 107.314 47.796C107.118 47.9733 107.02 48.2013 107.02 48.48C107.02 48.7587 107.118 48.9835 107.314 49.1545C107.51 49.3255 107.792 49.411 108.16 49.411C108.375 49.411 108.581 49.373 108.777 49.297C108.973 49.2147 109.135 49.0817 109.262 48.898C109.395 48.708 109.467 48.4483 109.48 48.119L109.727 48.48C109.695 48.841 109.607 49.145 109.461 49.392C109.322 49.6327 109.125 49.8163 108.872 49.943C108.625 50.0697 108.324 50.133 107.97 50.133ZM112.465 50V43.065H113.377V50H112.465ZM111.762 43.787V43.065H113.377V43.787H111.762ZM118.922 50.038V49.221H120.86C121.233 49.221 121.522 49.1165 121.724 48.9075C121.933 48.6922 122.038 48.4072 122.038 48.0525C122.038 47.6915 121.936 47.4097 121.734 47.207C121.531 46.998 121.24 46.8935 120.86 46.8935H118.922V46.2855H120.727C121.17 46.2855 121.56 46.3393 121.895 46.447C122.237 46.5547 122.503 46.7352 122.693 46.9885C122.89 47.2355 122.988 47.5743 122.988 48.005V48.138C122.988 48.5433 122.905 48.8885 122.741 49.1735C122.576 49.4522 122.326 49.6675 121.99 49.8195C121.655 49.9652 121.233 50.038 120.727 50.038H118.922ZM118.181 50.038V43.027H119.112V50.038H118.181ZM118.922 46.7225V46.1145H120.603C120.996 46.1145 121.284 46.01 121.468 45.801C121.658 45.5857 121.753 45.3133 121.753 44.984C121.753 44.6483 121.658 44.376 121.468 44.167C121.284 43.9517 120.996 43.844 120.603 43.844H118.922V43.027H120.442C121.202 43.027 121.769 43.1885 122.142 43.5115C122.516 43.8282 122.703 44.2873 122.703 44.889V45.022C122.703 45.4463 122.608 45.7852 122.418 46.0385C122.228 46.2855 121.962 46.4628 121.62 46.5705C121.284 46.6718 120.891 46.7225 120.442 46.7225H118.922ZM125.132 50V44.927H126.044V50H125.132ZM124.353 45.649V44.927H126.044V45.649H124.353ZM125.388 44.11C125.186 44.11 125.034 44.0562 124.932 43.9485C124.837 43.8408 124.79 43.7047 124.79 43.54C124.79 43.3753 124.837 43.2392 124.932 43.1315C125.034 43.0238 125.186 42.97 125.388 42.97C125.591 42.97 125.74 43.0238 125.835 43.1315C125.936 43.2392 125.987 43.3753 125.987 43.54C125.987 43.7047 125.936 43.8408 125.835 43.9485C125.74 44.0562 125.591 44.11 125.388 44.11ZM128.244 50V43.065H129.156V50H128.244ZM127.541 43.787V43.065H129.156V43.787H127.541ZM131.342 50V43.065H132.254V50H131.342ZM130.639 43.787V43.065H132.254V43.787H130.639ZM134.631 50V44.927H135.543V50H134.631ZM133.852 45.649V44.927H135.543V45.649H133.852ZM134.887 44.11C134.685 44.11 134.533 44.0562 134.431 43.9485C134.336 43.8408 134.289 43.7047 134.289 43.54C134.289 43.3753 134.336 43.2392 134.431 43.1315C134.533 43.0238 134.685 42.97 134.887 42.97C135.09 42.97 135.239 43.0238 135.334 43.1315C135.435 43.2392 135.486 43.3753 135.486 43.54C135.486 43.7047 135.435 43.8408 135.334 43.9485C135.239 44.0562 135.09 44.11 134.887 44.11ZM137.686 50V44.927H138.408V47.1025H138.294C138.294 46.6022 138.361 46.181 138.494 45.839C138.633 45.4907 138.842 45.2278 139.121 45.0505C139.399 44.8668 139.751 44.775 140.175 44.775H140.213C140.853 44.775 141.325 44.9745 141.629 45.3735C141.939 45.7725 142.094 46.3488 142.094 47.1025V50H141.182V46.9125C141.182 46.5198 141.071 46.2063 140.85 45.972C140.628 45.7313 140.324 45.611 139.938 45.611C139.539 45.611 139.216 45.7345 138.969 45.9815C138.722 46.2285 138.598 46.5578 138.598 46.9695V50H137.686ZM146.062 51.976C145.827 51.976 145.59 51.9665 145.349 51.9475C145.115 51.9285 144.89 51.9032 144.675 51.8715V51.102C144.903 51.1337 145.14 51.159 145.387 51.178C145.641 51.2033 145.878 51.216 146.1 51.216C146.562 51.216 146.929 51.1527 147.202 51.026C147.48 50.9057 147.68 50.7125 147.8 50.4465C147.927 50.1868 147.99 49.8512 147.99 49.4395V48.4705L148.294 47.7485C148.275 48.2615 148.168 48.689 147.971 49.031C147.775 49.3667 147.518 49.62 147.202 49.791C146.891 49.9557 146.546 50.038 146.166 50.038C145.812 50.038 145.485 49.9715 145.188 49.8385C144.896 49.6992 144.643 49.5092 144.428 49.2685C144.219 49.0278 144.054 48.7523 143.934 48.442C143.82 48.1253 143.763 47.7928 143.763 47.4445V47.2735C143.763 46.9188 143.823 46.5895 143.943 46.2855C144.064 45.9752 144.231 45.706 144.447 45.478C144.662 45.25 144.919 45.0727 145.216 44.946C145.52 44.8193 145.853 44.756 146.214 44.756C146.638 44.756 147.012 44.8478 147.335 45.0315C147.658 45.2088 147.911 45.4717 148.095 45.82C148.285 46.162 148.389 46.5832 148.408 47.0835L148.142 47.093V44.927H148.864V49.4015C148.864 50.0095 148.769 50.5003 148.579 50.874C148.396 51.254 148.098 51.5327 147.686 51.71C147.281 51.8873 146.739 51.976 146.062 51.976ZM146.337 49.202C146.641 49.202 146.917 49.1355 147.164 49.0025C147.417 48.8695 147.617 48.6795 147.762 48.4325C147.914 48.1792 147.99 47.8783 147.99 47.53V47.093C147.99 46.751 147.911 46.4628 147.753 46.2285C147.601 45.9942 147.401 45.8168 147.154 45.6965C146.907 45.5762 146.638 45.516 146.347 45.516C146.017 45.516 145.726 45.592 145.473 45.744C145.219 45.896 145.023 46.1113 144.884 46.39C144.744 46.6623 144.675 46.9853 144.675 47.359C144.675 47.7327 144.744 48.0588 144.884 48.3375C145.029 48.6162 145.226 48.8315 145.473 48.9835C145.726 49.1292 146.014 49.202 146.337 49.202ZM155.859 50.171C155.283 50.171 154.792 50.076 154.387 49.886C153.982 49.696 153.671 49.4332 153.456 49.0975C153.241 48.7618 153.133 48.3818 153.133 47.9575H154.064C154.064 48.1665 154.118 48.3755 154.225 48.5845C154.339 48.7935 154.526 48.9677 154.786 49.107C155.052 49.2463 155.41 49.316 155.859 49.316C156.277 49.316 156.619 49.2558 156.885 49.1355C157.151 49.0088 157.348 48.8473 157.474 48.651C157.601 48.4483 157.664 48.2298 157.664 47.9955C157.664 47.7105 157.541 47.4762 157.294 47.2925C157.047 47.1025 156.686 46.9853 156.211 46.941L155.441 46.8745C154.827 46.8238 154.336 46.6338 153.969 46.3045C153.602 45.9752 153.418 45.5413 153.418 45.003C153.418 44.5787 153.519 44.2082 153.722 43.8915C153.931 43.5748 154.219 43.3278 154.586 43.1505C154.954 42.9668 155.381 42.875 155.869 42.875C156.35 42.875 156.775 42.9637 157.142 43.141C157.509 43.3183 157.794 43.5685 157.997 43.8915C158.206 44.2082 158.31 44.5882 158.31 45.0315H157.379C157.379 44.8098 157.326 44.6008 157.218 44.4045C157.117 44.2082 156.955 44.0467 156.733 43.92C156.512 43.7933 156.224 43.73 155.869 43.73C155.527 43.73 155.242 43.7902 155.014 43.9105C154.792 44.0308 154.624 44.1892 154.51 44.3855C154.403 44.5755 154.349 44.7813 154.349 45.003C154.349 45.2563 154.447 45.4812 154.643 45.6775C154.84 45.8738 155.131 45.9878 155.517 46.0195L156.287 46.086C156.762 46.124 157.17 46.2253 157.512 46.39C157.861 46.5483 158.127 46.7637 158.31 47.036C158.5 47.302 158.595 47.6218 158.595 47.9955C158.595 48.4198 158.481 48.7967 158.253 49.126C158.025 49.4553 157.706 49.7118 157.294 49.8955C156.882 50.0792 156.404 50.171 155.859 50.171ZM162.742 50.171C162.298 50.171 161.909 50.095 161.573 49.943C161.238 49.791 160.953 49.5915 160.718 49.3445C160.49 49.0912 160.316 48.8093 160.196 48.499C160.082 48.1887 160.025 47.872 160.025 47.549V47.378C160.025 47.055 160.085 46.7383 160.205 46.428C160.326 46.1113 160.503 45.8295 160.737 45.5825C160.972 45.3292 161.257 45.1297 161.592 44.984C161.928 44.832 162.311 44.756 162.742 44.756C163.172 44.756 163.556 44.832 163.891 44.984C164.227 45.1297 164.512 45.3292 164.746 45.5825C164.981 45.8295 165.158 46.1113 165.278 46.428C165.399 46.7383 165.459 47.055 165.459 47.378V47.549C165.459 47.872 165.399 48.1887 165.278 48.499C165.164 48.8093 164.99 49.0912 164.756 49.3445C164.528 49.5915 164.246 49.791 163.91 49.943C163.575 50.095 163.185 50.171 162.742 50.171ZM162.742 49.354C163.122 49.354 163.445 49.2717 163.711 49.107C163.983 48.936 164.189 48.708 164.328 48.423C164.474 48.138 164.547 47.8182 164.547 47.4635C164.547 47.1025 164.474 46.7795 164.328 46.4945C164.183 46.2095 163.974 45.9847 163.701 45.82C163.435 45.6553 163.115 45.573 162.742 45.573C162.374 45.573 162.055 45.6553 161.782 45.82C161.51 45.9847 161.301 46.2095 161.155 46.4945C161.01 46.7795 160.937 47.1025 160.937 47.4635C160.937 47.8182 161.006 48.138 161.146 48.423C161.291 48.708 161.497 48.936 161.763 49.107C162.036 49.2717 162.362 49.354 162.742 49.354ZM167.262 50V43.065H168.174V50H167.262ZM166.559 43.787V43.065H168.174V43.787H166.559ZM172.06 50.152C171.459 50.152 170.996 49.9557 170.673 49.563C170.35 49.1703 170.189 48.6035 170.189 47.8625V44.9175H171.101V48.043C171.101 48.442 171.209 48.7555 171.424 48.9835C171.639 49.2052 171.931 49.316 172.298 49.316C172.678 49.316 172.988 49.1957 173.229 48.955C173.47 48.708 173.59 48.3723 173.59 47.948V44.9175H174.502V50H173.78V47.8245H173.894C173.894 48.3248 173.827 48.7492 173.694 49.0975C173.561 49.4395 173.362 49.7023 173.096 49.886C172.836 50.0633 172.504 50.152 172.098 50.152H172.06ZM178.624 50.057C178.244 50.057 177.915 50.0032 177.636 49.8955C177.364 49.7878 177.152 49.6042 177 49.3445C176.854 49.0785 176.781 48.7207 176.781 48.271V43.388H177.655V48.385C177.655 48.6573 177.728 48.8695 177.874 49.0215C178.026 49.1672 178.238 49.24 178.51 49.24H179.403V50.057H178.624ZM175.907 45.611V44.927H179.403V45.611H175.907ZM181.32 50V44.927H182.232V50H181.32ZM180.541 45.649V44.927H182.232V45.649H180.541ZM181.577 44.11C181.374 44.11 181.222 44.0562 181.121 43.9485C181.026 43.8408 180.978 43.7047 180.978 43.54C180.978 43.3753 181.026 43.2392 181.121 43.1315C181.222 43.0238 181.374 42.97 181.577 42.97C181.779 42.97 181.928 43.0238 182.023 43.1315C182.125 43.2392 182.175 43.3753 182.175 43.54C182.175 43.7047 182.125 43.8408 182.023 43.9485C181.928 44.0562 181.779 44.11 181.577 44.11ZM186.713 50.171C186.269 50.171 185.88 50.095 185.544 49.943C185.208 49.791 184.923 49.5915 184.689 49.3445C184.461 49.0912 184.287 48.8093 184.167 48.499C184.053 48.1887 183.996 47.872 183.996 47.549V47.378C183.996 47.055 184.056 46.7383 184.176 46.428C184.296 46.1113 184.474 45.8295 184.708 45.5825C184.942 45.3292 185.227 45.1297 185.563 44.984C185.899 44.832 186.282 44.756 186.713 44.756C187.143 44.756 187.526 44.832 187.862 44.984C188.198 45.1297 188.483 45.3292 188.717 45.5825C188.951 45.8295 189.129 46.1113 189.249 46.428C189.369 46.7383 189.43 47.055 189.43 47.378V47.549C189.43 47.872 189.369 48.1887 189.249 48.499C189.135 48.8093 188.961 49.0912 188.727 49.3445C188.499 49.5915 188.217 49.791 187.881 49.943C187.545 50.095 187.156 50.171 186.713 50.171ZM186.713 49.354C187.093 49.354 187.416 49.2717 187.682 49.107C187.954 48.936 188.16 48.708 188.299 48.423C188.445 48.138 188.518 47.8182 188.518 47.4635C188.518 47.1025 188.445 46.7795 188.299 46.4945C188.153 46.2095 187.944 45.9847 187.672 45.82C187.406 45.6553 187.086 45.573 186.713 45.573C186.345 45.573 186.025 45.6553 185.753 45.82C185.481 45.9847 185.272 46.2095 185.126 46.4945C184.98 46.7795 184.908 47.1025 184.908 47.4635C184.908 47.8182 184.977 48.138 185.117 48.423C185.262 48.708 185.468 48.936 185.734 49.107C186.006 49.2717 186.333 49.354 186.713 49.354ZM191.176 50V44.927H191.898V47.1025H191.784C191.784 46.6022 191.85 46.181 191.983 45.839C192.122 45.4907 192.331 45.2278 192.61 45.0505C192.889 44.8668 193.24 44.775 193.665 44.775H193.703C194.342 44.775 194.814 44.9745 195.118 45.3735C195.428 45.7725 195.584 46.3488 195.584 47.1025V50H194.672V46.9125C194.672 46.5198 194.561 46.2063 194.339 45.972C194.117 45.7313 193.813 45.611 193.427 45.611C193.028 45.611 192.705 45.7345 192.458 45.9815C192.211 46.2285 192.088 46.5578 192.088 46.9695V50H191.176ZM199.295 50.152C198.63 50.152 198.114 50.0095 197.746 49.7245C197.385 49.4395 197.198 49.05 197.186 48.556H198.041C198.053 48.7523 198.152 48.9392 198.335 49.1165C198.525 49.2875 198.845 49.373 199.295 49.373C199.7 49.373 200.01 49.2938 200.226 49.1355C200.441 48.9708 200.549 48.7713 200.549 48.537C200.549 48.328 200.47 48.1665 200.311 48.0525C200.153 47.9322 199.896 47.853 199.542 47.815L198.991 47.758C198.509 47.7073 198.117 47.5648 197.813 47.3305C197.509 47.0898 197.357 46.7542 197.357 46.3235C197.357 46.0005 197.439 45.725 197.604 45.497C197.768 45.2627 197.996 45.0853 198.288 44.965C198.579 44.8383 198.915 44.775 199.295 44.775C199.865 44.775 200.327 44.9017 200.682 45.155C201.036 45.4083 201.22 45.7852 201.233 46.2855H200.378C200.371 46.0828 200.276 45.9118 200.093 45.7725C199.915 45.6268 199.649 45.554 199.295 45.554C198.94 45.554 198.671 45.6268 198.487 45.7725C198.304 45.9182 198.212 46.1018 198.212 46.3235C198.212 46.5135 198.275 46.6655 198.402 46.7795C198.535 46.8935 198.75 46.9663 199.048 46.998L199.599 47.055C200.143 47.112 200.58 47.264 200.91 47.511C201.239 47.7517 201.404 48.0937 201.404 48.537C201.404 48.8537 201.312 49.1355 201.128 49.3825C200.951 49.6232 200.704 49.8132 200.387 49.9525C200.071 50.0855 199.706 50.152 199.295 50.152Z" fill="#3DC5DF"/>
<path d="M77.57 36.57C75.59 36.57 73.89 36.22 72.47 35.52C71.05 34.82 69.89 33.91 68.99 32.79C68.11 31.67 67.46 30.45 67.04 29.13C66.62 27.81 66.41 26.54 66.41 25.32V24.66C66.41 23.3 66.62 21.96 67.04 20.64C67.48 19.32 68.15 18.12 69.05 17.04C69.95 15.96 71.09 15.1 72.47 14.46C73.87 13.8 75.52 13.47 77.42 13.47C79.4 13.47 81.12 13.83 82.58 14.55C84.06 15.25 85.24 16.25 86.12 17.55C87 18.83 87.53 20.33 87.71 22.05H83.42C83.26 21.05 82.9 20.21 82.34 19.53C81.8 18.83 81.11 18.31 80.27 17.97C79.43 17.61 78.48 17.43 77.42 17.43C76.34 17.43 75.38 17.62 74.54 18C73.7 18.36 73 18.88 72.44 19.56C71.88 20.24 71.45 21.04 71.15 21.96C70.87 22.88 70.73 23.9 70.73 25.02C70.73 26.1 70.87 27.1 71.15 28.02C71.45 28.94 71.89 29.75 72.47 30.45C73.05 31.13 73.76 31.66 74.6 32.04C75.46 32.42 76.45 32.61 77.57 32.61C79.21 32.61 80.59 32.21 81.71 31.41C82.85 30.59 83.54 29.45 83.78 27.99H88.07C87.87 29.55 87.34 30.98 86.48 32.28C85.62 33.58 84.44 34.62 82.94 35.4C81.44 36.18 79.65 36.57 77.57 36.57ZM92.8348 36V14.1H97.0048V26.88H96.2848C96.2848 25.24 96.4948 23.85 96.9148 22.71C97.3348 21.57 97.9548 20.7 98.7748 20.1C99.6148 19.5 100.675 19.2 101.955 19.2H102.135C103.995 19.2 105.405 19.84 106.365 21.12C107.325 22.4 107.805 24.26 107.805 26.7V36H103.635V26.31C103.635 25.27 103.335 24.45 102.735 23.85C102.155 23.25 101.385 22.95 100.425 22.95C99.4048 22.95 98.5748 23.29 97.9348 23.97C97.3148 24.63 97.0048 25.5 97.0048 26.58V36H92.8348ZM123.658 36V31.17H122.968V25.8C122.968 24.86 122.738 24.16 122.278 23.7C121.818 23.24 121.108 23.01 120.148 23.01C119.648 23.01 119.048 23.02 118.348 23.04C117.648 23.06 116.938 23.09 116.218 23.13C115.518 23.15 114.888 23.18 114.328 23.22V19.68C114.788 19.64 115.308 19.6 115.888 19.56C116.468 19.52 117.058 19.5 117.658 19.5C118.278 19.48 118.858 19.47 119.398 19.47C121.078 19.47 122.468 19.69 123.568 20.13C124.688 20.57 125.528 21.26 126.088 22.2C126.668 23.14 126.958 24.37 126.958 25.89V36H123.658ZM118.408 36.42C117.228 36.42 116.188 36.21 115.288 35.79C114.408 35.37 113.718 34.77 113.218 33.99C112.738 33.21 112.498 32.27 112.498 31.17C112.498 29.97 112.788 28.99 113.368 28.23C113.968 27.47 114.798 26.9 115.858 26.52C116.938 26.14 118.198 25.95 119.638 25.95H123.418V28.44H119.578C118.618 28.44 117.878 28.68 117.358 29.16C116.858 29.62 116.608 30.22 116.608 30.96C116.608 31.7 116.858 32.3 117.358 32.76C117.878 33.22 118.618 33.45 119.578 33.45C120.158 33.45 120.688 33.35 121.168 33.15C121.668 32.93 122.078 32.57 122.398 32.07C122.738 31.55 122.928 30.85 122.968 29.97L123.988 31.14C123.888 32.28 123.608 33.24 123.148 34.02C122.708 34.8 122.088 35.4 121.288 35.82C120.508 36.22 119.548 36.42 118.408 36.42ZM140.005 36.21C138.505 36.21 137.265 36.02 136.285 35.64C135.325 35.24 134.605 34.58 134.125 33.66C133.645 32.72 133.405 31.46 133.405 29.88L133.435 15.12H137.335L137.305 30.15C137.305 30.95 137.515 31.57 137.935 32.01C138.375 32.43 138.995 32.64 139.795 32.64H142.345V36.21H140.005ZM130.825 22.77V19.71H142.345V22.77H130.825ZM154.425 36.21C152.925 36.21 151.685 36.02 150.705 35.64C149.745 35.24 149.025 34.58 148.545 33.66C148.065 32.72 147.825 31.46 147.825 29.88L147.855 15.12H151.755L151.725 30.15C151.725 30.95 151.935 31.57 152.355 32.01C152.795 32.43 153.415 32.64 154.215 32.64H156.765V36.21H154.425ZM145.245 22.77V19.71H156.765V22.77H145.245ZM168.967 36.57C167.567 36.57 166.337 36.33 165.277 35.85C164.237 35.37 163.367 34.73 162.667 33.93C161.987 33.11 161.467 32.2 161.107 31.2C160.767 30.2 160.597 29.18 160.597 28.14V27.57C160.597 26.49 160.767 25.45 161.107 24.45C161.467 23.43 161.987 22.53 162.667 21.75C163.367 20.95 164.227 20.32 165.247 19.86C166.267 19.38 167.447 19.14 168.787 19.14C170.547 19.14 172.017 19.53 173.197 20.31C174.397 21.07 175.297 22.08 175.897 23.34C176.497 24.58 176.797 25.92 176.797 27.36V28.86H162.367V26.31H174.187L172.897 27.57C172.897 26.53 172.747 25.64 172.447 24.9C172.147 24.16 171.687 23.59 171.067 23.19C170.467 22.79 169.707 22.59 168.787 22.59C167.867 22.59 167.087 22.8 166.447 23.22C165.807 23.64 165.317 24.25 164.977 25.05C164.657 25.83 164.497 26.77 164.497 27.87C164.497 28.89 164.657 29.8 164.977 30.6C165.297 31.38 165.787 32 166.447 32.46C167.107 32.9 167.947 33.12 168.967 33.12C169.987 33.12 170.817 32.92 171.457 32.52C172.097 32.1 172.507 31.59 172.687 30.99H176.527C176.287 32.11 175.827 33.09 175.147 33.93C174.467 34.77 173.597 35.42 172.537 35.88C171.497 36.34 170.307 36.57 168.967 36.57ZM181.78 36V19.71H185.08V26.61H184.99C184.99 24.27 185.49 22.5 186.49 21.3C187.49 20.1 188.96 19.5 190.9 19.5H191.5V23.13H190.36C188.96 23.13 187.87 23.51 187.09 24.27C186.33 25.01 185.95 26.09 185.95 27.51V36H181.78ZM201.7 36.51C199.46 36.51 197.7 36.04 196.42 35.1C195.16 34.14 194.5 32.82 194.44 31.14H198.19C198.25 31.7 198.56 32.21 199.12 32.67C199.68 33.13 200.56 33.36 201.76 33.36C202.76 33.36 203.55 33.18 204.13 32.82C204.73 32.46 205.03 31.97 205.03 31.35C205.03 30.81 204.8 30.38 204.34 30.06C203.9 29.74 203.14 29.53 202.06 29.43L200.62 29.28C198.8 29.08 197.4 28.56 196.42 27.72C195.44 26.88 194.95 25.76 194.95 24.36C194.95 23.24 195.23 22.3 195.79 21.54C196.35 20.78 197.12 20.21 198.1 19.83C199.1 19.43 200.24 19.23 201.52 19.23C203.52 19.23 205.14 19.67 206.38 20.55C207.62 21.43 208.27 22.72 208.33 24.42H204.58C204.54 23.86 204.26 23.38 203.74 22.98C203.22 22.58 202.47 22.38 201.49 22.38C200.61 22.38 199.93 22.55 199.45 22.89C198.97 23.23 198.73 23.67 198.73 24.21C198.73 24.73 198.92 25.13 199.3 25.41C199.7 25.69 200.34 25.88 201.22 25.98L202.66 26.13C204.58 26.33 206.08 26.86 207.16 27.72C208.26 28.58 208.81 29.74 208.81 31.2C208.81 32.28 208.51 33.22 207.91 34.02C207.33 34.8 206.51 35.41 205.45 35.85C204.39 36.29 203.14 36.51 201.7 36.51Z" fill="black"/>
<path d="M40.121 20.6388V19.4935C37.556 21.3665 37.4195 23.1657 36.7385 24.1253C35.532 25.8253 34.456 25.6042 34.254 24.9881C33.9415 24.0334 34.3625 21.5237 33.4645 21.5252C29.919 21.5311 27.0935 21.6824 24.8235 25.9663C22.5535 30.2502 20.946 28.5021 20.946 28.5021C20.946 28.5021 23.86 21.4982 26.0465 19.1319C27.694 17.3489 31.6895 16.7588 34.9905 16.0085C36.943 15.5649 38.641 14.8804 40.121 14.1145V7H21.8795V20.6383H8V38.5635H21.879V40.7715C24.6405 38.847 24.768 36.9795 25.4665 35.9953C26.673 34.2953 27.749 34.5164 27.951 35.1325C28.2635 36.0867 27.8425 38.5969 28.7405 38.5954C32.286 38.5895 35.1115 38.4382 37.3815 34.1543C39.6515 29.8704 41.259 31.6186 41.259 31.6186C41.259 31.6186 38.345 38.6225 36.1585 40.9887C34.511 42.7717 30.5155 43.3618 27.2145 44.1121C25.1695 44.5769 23.4075 45.306 21.879 46.1162V52.2028H40.1205V38.5645H54V20.6393H40.121V20.6388ZM31 34.1229C28.175 33.1942 26.364 30.8059 26.734 28.7954C26.9795 27.4604 28.261 26.7043 29.41 27.0949C30.554 27.4835 31 28.2397 31 28.2397C31 28.2397 31.446 27.484 32.59 27.0949C33.739 26.7043 35.0205 27.4604 35.266 28.7954C35.636 30.8059 33.825 33.1942 31 34.1229Z" fill="url(#paint0_linear_514_1476)"/>
<path d="M21.8065 20.6388H21.879V7.00049H40.1205V14.1149C38.6405 14.8814 36.9425 15.5653 34.99 16.009C31.689 16.7593 27.6935 17.3494 26.046 19.1324C25.241 20.003 24.339 21.5031 23.5185 23.0503C22.917 22.27 22.346 21.4657 21.8065 20.6388ZM27.486 27.4816C28.0155 27.0344 28.735 26.8654 29.4105 27.0949C30.5545 27.4835 31.0005 28.2397 31.0005 28.2397C31.0005 28.2397 31.4465 27.484 32.5905 27.0949C33.7395 26.7043 35.021 27.4604 35.2665 28.7954C35.4975 30.0517 34.877 31.4559 33.6895 32.559C34.368 33.0306 35.054 33.492 35.753 33.9342C36.1785 34.2034 36.6115 34.4732 37.05 34.7424C37.162 34.5547 37.273 34.3612 37.3825 34.1548C39.6525 29.8709 41.26 31.619 41.26 31.619C41.26 31.619 40.379 33.7352 39.223 36.0336C40.802 36.9397 42.446 37.8049 44.1365 38.5645H54V20.6393H40.121V19.494C37.556 21.367 37.4195 23.1662 36.7385 24.1258C35.532 25.8258 34.456 25.6047 34.254 24.9885C33.9415 24.0339 34.3625 21.5242 33.4645 21.5257C30.1515 21.5316 27.4675 21.6657 25.278 25.1777C25.983 25.9722 26.721 26.7396 27.486 27.4816Z" fill="url(#paint1_linear_514_1476)"/>
<path opacity="0.25" d="M36.9395 23.7909C37.4745 22.7812 37.828 21.1682 40.1205 19.4943V20.6395H54V33.8253C49.4125 32.3401 45.063 30.1679 41.1075 27.2543C39.6625 26.1896 38.2765 25.0197 36.9395 23.7909ZM30.42 17.0435C31.901 16.6504 33.514 16.3453 34.9905 16.0097C36.943 15.5661 38.641 14.8816 40.121 14.1157V7.00122H24.5965C25.49 10.8061 27.8445 14.0847 30.42 17.0435Z" fill="url(#paint2_linear_514_1476)"/>
<defs>
<linearGradient id="paint0_linear_514_1476" x1="14.9396" y1="45.3835" x2="46.4986" y2="13.2676" gradientUnits="userSpaceOnUse">
<stop stop-color="#0076C1"/>
<stop offset="0.0737" stop-color="#0B82C6"/>
<stop offset="0.2766" stop-color="#269ED3"/>
<stop offset="0.4546" stop-color="#36AFDA"/>
<stop offset="0.587" stop-color="#3CB5DD"/>
</linearGradient>
<linearGradient id="paint1_linear_514_1476" x1="14.4093" y1="45.9046" x2="46.4893" y2="13.2585" gradientUnits="userSpaceOnUse">
<stop stop-color="#00A482"/>
<stop offset="1" stop-color="#79DD83"/>
</linearGradient>
<linearGradient id="paint2_linear_514_1476" x1="13.8828" y1="45.3876" x2="45.9628" y2="12.7414" gradientUnits="userSpaceOnUse">
<stop stop-color="#00A482"/>
<stop offset="1" stop-color="#79DD83"/>
</linearGradient>
</defs>
</svg>
